<?xml version="1.0" standalone="no"?>
<!DOCTYPE svg PUBLIC "-//W3C//DTD SVG 20010904//EN"
 "http://www.w3.org/TR/2001/REC-SVG-20010904/DTD/svg10.dtd">
<svg version="1.0" xmlns="http://www.w3.org/2000/svg"
 width="512.000000pt" height="512.000000pt" viewBox="0 0 512.000000 512.000000"
 preserveAspectRatio="xMidYMid meet">

<g transform="translate(0.000000,512.000000) scale(0.100000,-0.100000)"
fill="#000000" stroke="none">
<path d="M2335 4789 c-518 -50 -1015 -292 -1385 -675 -861 -892 -836 -2303 56
-3164 336 -324 729 -521 1204 -602 180 -31 520 -31 700 0 503 86 922 306 1265
664 321 335 516 726 597 1198 18 103 22 165 22 350 0 185 -4 247 -22 350 -81
475 -278 868 -602 1204 -479 496 -1144 741 -1835 675z m415 -319 c581 -61
1098 -374 1416 -861 576 -878 334 -2059 -541 -2644 -709 -475 -1643 -423
-2300 127 -741 620 -902 1708 -372 2517 394 600 1091 934 1797 861z"/>
<path d="M3770 3793 c-841 -312 -1466 -603 -1650 -769 -152 -138 -424 -699
-732 -1513 -38 -101 -67 -185 -64 -188 2 -2 130 44 283 102 753 290 1288 553
1417 696 147 162 397 681 670 1390 58 152 106 279 106 283 0 7 -9 7 -30 -1z
m-1213 -1235 c128 -128 233 -240 233 -250 0 -60 -293 -227 -740 -420 -259
-113 -284 -122 -277 -106 128 321 348 783 430 903 33 49 90 105 106 105 9 0
121 -105 248 -232z"/>
</g>
</svg>
