<?xml version="1.0" standalone="no"?>
<!DOCTYPE svg PUBLIC "-//W3C//DTD SVG 20010904//EN"
 "http://www.w3.org/TR/2001/REC-SVG-20010904/DTD/svg10.dtd">
<svg version="1.0" xmlns="http://www.w3.org/2000/svg"
 width="512.000000pt" height="512.000000pt" viewBox="0 0 512.000000 512.000000"
 preserveAspectRatio="xMidYMid meet">

<g transform="translate(0.000000,512.000000) scale(0.100000,-0.100000)"
fill="#000000" stroke="none">
<path d="M2495 5106 c-26 -11 -2136 -1629 -2204 -1690 -13 -11 -32 -39 -42
-61 -18 -38 -19 -105 -19 -1623 0 -1402 2 -1587 15 -1619 21 -50 42 -72 90
-94 38 -17 83 -19 771 -19 808 0 790 -1 875 64 25 18 58 58 74 87 l30 54 5
825 5 825 26 66 c49 126 130 212 255 271 66 32 74 33 189 33 117 0 122 -1 195
-36 126 -61 204 -146 253 -276 22 -58 22 -62 27 -883 l5 -825 23 -42 c30 -58
86 -111 141 -137 45 -21 56 -21 781 -24 494 -2 747 0 771 7 51 15 88 48 110
95 18 39 19 104 19 1626 0 1823 12 1628 -106 1722 -263 211 -2134 1643 -2160
1654 -41 17 -90 17 -129 0z m1056 -1148 l989 -763 -2 -1420 -3 -1420 -572 -3
-573 -2 0 744 c0 792 -1 812 -49 950 -89 253 -311 451 -586 522 -95 24 -284
24 -380 0 -105 -26 -259 -105 -339 -173 -124 -104 -218 -249 -268 -413 -22
-75 -22 -77 -26 -853 l-3 -777 -577 2 -577 3 -3 1420 -2 1420 987 762 c544
419 989 762 991 762 2 1 449 -342 993 -761z"/>
</g>
</svg>
